<?xml version="1.0" encoding="utf-8"?>
<!-- Generator: Adobe Illustrator 24.1.2, SVG Export Plug-In . SVG Version: 6.00 Build 0)  -->
<svg version="1.1" id="レイヤー_1" xmlns="http://www.w3.org/2000/svg" xmlns:xlink="http://www.w3.org/1999/xlink" x="0px"
	 y="0px" viewBox="0 0 100 100" style="enable-background:new 0 0 100 100;" xml:space="preserve">
<style type="text/css">
	.st0{fill:#555555;}
</style>
<g id="icon_pencil" transform="translate(288 474.415)">
	<g id="グループ_4778" transform="translate(-351 -621)">
		<g id="グループ_3080" transform="translate(361 634)">
			<g id="グループ_3082">
				<path id="Icon-18" class="st0" d="M-283.19-412.96h57.04c1.63,0,2.96,1.32,2.96,2.96v3.08c0,1.63-1.32,2.96-2.96,2.96h-57.04
					c-1.63,0-2.96-1.32-2.96-2.96V-410C-286.15-411.64-284.82-412.96-283.19-412.96z"/>
				<path id="Icon-19" class="st0" d="M-247.85-421.86h-8.95c-0.81,0.01-1.47-0.64-1.48-1.44c0-0.01,0-0.02,0-0.04v-8.95
					c0-0.4,0.16-0.78,0.44-1.06l32.14-32.13l11.05,11.05l-32.17,32.14C-247.08-422.02-247.46-421.86-247.85-421.86z M-211.5-457.6
					L-211.5-457.6l-11.05-11.04l5.39-5.39c1.14-1.15,3-1.15,4.15-0.01c0,0,0.01,0.01,0.01,0.01l6.89,6.89
					c1.14,1.15,1.14,2.99,0,4.14L-211.5-457.6L-211.5-457.6z"/>
			</g>
		</g>
	</g>
</g>
</svg>
